Coordinates
version=1
nRows=12
nColumns=33
inDegrees=yes

Units are S.I. units (second, meters, Newtons, ...)
Angles are in degrees.

endheader
time	ground_thorax_rot_x	ground_thorax_rot_y	ground_thorax_rot_z	ground_thorax_tx	ground_thorax_ty	ground_thorax_tz	clav_prot_r	clav_elev_r	scapula_abduction_r	scapula_elevation_r	scapula_upward_rot_r	scapula_winging_r	shoulder_elv_r	plane_of_elev_r	axial_rot_r	elbow_flexion_r	pro_sup_r	wrist_flex_r	wrist_dev_r	clav_prot_l	clav_elev_l	scapula_abduction_l	scapula_elevation_l	scapula_upward_rot_l	scapula_winging_l	shoulder_elv_l	plane_of_elev_l	axial_rot_l	elbow_flexion_l	pro_sup_l	wrist_flex_l	wrist_dev_l
      3.85000000	    -40.43410671	    -12.34727878	      9.64715544	   -215.15512158	    837.84050157	     -5.72490511	      5.02798843	    -45.00000000	     34.25354961	    -45.00000000	    -20.71854390	   2410.98168866	   -650.36279970	     21.91700701	   -179.99999979	   1808.57954110	   -130.56349897	     16.34842107	     12.22305164	     14.74901901	     37.90039777	    -34.47061179	    -45.00000000	    -45.00000000	   -276.48831666	  -2449.93563142	     18.16506952	    -48.45953399	    730.49558662	     39.51723881	      8.75303191	    -22.76595676
      3.86000000	    -40.38389750	    -12.19855716	      9.75305942	   -217.04417484	    840.34264427	     -5.58602466	      5.02506996	    -45.00000000	     34.47669992	    -45.00000000	    -20.38357170	   2410.69621627	   -650.21012759	     21.92050595	   -179.99999979	   1808.20330366	   -127.65211052	     16.49768914	     12.10082849	     15.10393533	     37.84274530	    -34.33144728	    -45.00000000	    -45.00000000	   -276.19481954	  -2449.82413036	     18.00484714	    -49.71727333	    730.50814748	     38.85722275	      8.45469823	    -22.51393108
      3.87000000	    -40.47946176	    -11.52989485	      9.41243853	   -218.64423515	    842.73776732	     -5.50358409	      4.63870079	    -45.00000000	     34.46224903	    -45.00000000	    -19.02305048	   2410.67382934	   -649.88404185	     21.68543198	   -179.99999979	   1808.06061105	   -125.68808645	     16.73332939	     12.15814645	     14.69940306	     38.64206435	    -34.71343940	    -45.00000000	    -45.00000000	   -275.62065890	  -2449.72993544	     18.05631064	    -51.05832255	    730.89546063	     38.68882049	      8.68629966	    -22.82661311
      3.88000000	    -40.47806911	    -11.25684140	      9.34644588	   -219.96966950	    845.02038380	     -5.47106855	      4.79395133	    -45.00000000	     34.66577694	    -45.00000000	    -18.96260116	   2410.46768567	   -649.89510107	     21.90506690	   -179.99999979	   1807.86403670	   -123.58986826	     16.92279277	     12.23823554	     14.85994617	     38.29889021	    -34.60121845	    -45.00000000	    -45.00000000	   -275.64239833	  -2449.52355971	     17.89753554	    -50.70549401	    730.83390997	     38.49098060	      8.60067571	    -22.76614927
      3.89000000	    -40.44652110	    -10.94469271	      9.23200043	   -221.02733111	    847.17683420	     -5.47803587	      4.79116848	    -45.00000000	     34.74512745	    -45.00000000	    -18.61390030	   2410.40234503	   -649.81896737	     21.93143391	   -179.99999979	   1807.63110009	   -121.43483488	     17.13543976	     12.32364723	     14.77959906	     38.36318711	    -34.58659265	    -45.00000000	    -45.00000000	   -275.50258499	  -2449.47215078	     17.86646668	    -50.82199131	    730.89546782	     38.37995294	      8.65901513	    -22.84319538
      3.90000000	    -40.41043577	    -10.74912938	      9.23299538	   -221.83029022	    849.20875378	     -5.51096594	      4.83147407	    -45.00000000	     34.91670257	    -45.00000000	    -18.28502074	   2410.29307340	   -649.77325206	     21.98476299	   -179.99999979	   1807.46698801	   -119.09089212	     17.31151765	     12.38405487	     14.82067592	     38.13783710	    -34.54276155	    -45.00000000	    -45.00000000	   -275.36669519	  -2449.40346154	     17.82840138	    -50.73854137	    730.84332122	     38.26946102	      8.64625074	    -22.82789530
      3.91000000	    -40.37812488	    -10.80701240	      9.49612387	   -222.39016012	    851.11824035	     -5.55724745	      4.56508518	    -45.00000000	     34.82820887	    -45.00000000	    -18.08037878	   2410.15656319	   -650.11115811	     22.17153076	   -179.99999979	   1804.87250235	    -86.84342934	     19.29505281	     10.16892129	     14.97874947	     38.07784086	    -34.34753050	    -45.00000000	    -45.00000000	   -275.33066956	  -2449.10814577	     17.62941266	    -51.38734691	    730.64800077	     36.86733983	      8.84138117	    -22.80541894
      3.92000000	    -40.35615327	    -10.45587337	      9.25969404	   -222.71671575	    852.90726083	     -5.60583690	      4.62068248	    -45.00000000	     35.31715724	    -45.00000000	    -16.64731567	   2409.78446436	   -649.94601653	     22.16097030	   -179.99999979	   1805.00794255	    -86.61028632	     19.43424657	     10.47579357	     14.86581685	     38.18478268	    -34.44314137	    -45.00000000	    -45.00000000	   -275.17305310	  -2449.26162594	     17.78902781	    -50.89422204	    730.57555912	     36.94189523	      8.78346904	    -22.73904967
      3.93000000	    -40.35874238	    -10.11257244	      9.16586961	   -222.82238160	    854.57598198	     -5.64538036	      4.60691586	    -45.00000000	     35.35220944	    -45.00000000	    -16.49130509	   2409.82059526	   -649.93188531	     22.18797358	   -179.99999979	   1805.05426673	    -86.15885248	     19.63378271	     10.58044561	     14.89017155	     38.13183176	    -34.60981193	    -45.00000000	    -45.00000000	   -275.12626136	  -2449.12202200	     17.76754277	    -50.70222265	    730.65538122	     36.98367899	      8.77010784	    -22.77164153
      3.94000000	    -40.38843012	     -9.61852275	      8.83307865	   -222.72004808	    856.13379829	     -5.66654969	      4.74765289	    -45.00000000	     35.40033643	    -45.00000000	    -16.07060972	   2409.75815947	   -650.03299568	     22.28104100	   -179.99999979	   1804.92484259	    -85.70445782	     19.88242143	     10.67290027	     14.85468750	     38.16635357	    -34.87180677	    -45.00000000	    -45.00000000	   -275.06283364	  -2449.09607281	     17.84399314	    -50.80157417	    730.71534551	     37.02457236	      8.81167335	    -22.83064367
      3.95000000	    -40.34350085	     -9.76752482	      9.09920036	   -222.42620117	    857.58957089	     -5.65839911	      4.46621232	    -45.00000000	     35.31338740	    -45.00000000	    -15.87961915	   2409.96032111	   -649.73570774	     22.20937534	   -179.99999979	   1805.05761273	    -85.14522638	     19.78654757	     10.69581379	     15.01424941	     38.15481580	    -34.80531682	    -45.00000000	    -45.00000000	   -274.91059310	  -2448.97517784	     17.81334014	    -50.68968234	    730.76360808	     37.02723643	      8.70120176	    -22.78711764
      3.96000000	    -40.40345514	     -9.51532839	      9.01039799	   -221.95540054	    858.94383295	     -5.61618229	      4.41897116	    -45.00000000	     35.42383539	    -45.00000000	    -15.77938592	   2409.96675484	   -649.74371591	     22.20065204	   -179.99999979	   1805.03124240	    -84.54243373	     19.99854338	     10.72853695	     15.00635735	     38.16840768	    -34.99979980	    -45.00000000	    -45.00000000	   -274.85000295	  -2448.90320626	     17.87278970	    -50.65166850	    730.70859979	     37.07443458	      8.68346475	    -22.76695291
